<svg xmlns="http://www.w3.org/2000/svg" xmlns:xlink="http://www.w3.org/1999/xlink" xmlns:lucid="lucid" width="1760" height="1360"><g transform="translate(0 0)" lucid:page-tab-id="0_0"><path d="M0 0h1760v1360H0z" fill="#ccc"/><path d="M620 129c0-1.66 1.34-3 3-3h359.33c1.66 0 3 1.34 3 3v107.73c0 1.65-1.34 3-3 3H623c-1.66 0-3-1.35-3-3z" fill="none"/><use xlink:href="#a" transform="matrix(1,0,0,1,620.0000000000001,126) translate(17.67500000000001 49.8)"/><use xlink:href="#b" transform="matrix(1,0,0,1,620.0000000000001,126) translate(49.57500000000002 49.8)"/><use xlink:href="#c" transform="matrix(1,0,0,1,620.0000000000001,126) translate(89.52500000000002 49.8)"/><use xlink:href="#d" transform="matrix(1,0,0,1,620.0000000000001,126) translate(173.425 49.8)"/><use xlink:href="#e" transform="matrix(1,0,0,1,620.0000000000001,126) translate(197.425 49.8)"/><use xlink:href="#f" transform="matrix(1,0,0,1,620.0000000000001,126) translate(219.425 49.8)"/><use xlink:href="#g" transform="matrix(1,0,0,1,620.0000000000001,126) translate(259.375 49.8)"/><use xlink:href="#h" transform="matrix(1,0,0,1,620.0000000000001,126) translate(319.325 49.8)"/><use xlink:href="#i" transform="matrix(1,0,0,1,620.0000000000001,126) translate(71.19999999999999 71.4)"/><use xlink:href="#j" transform="matrix(1,0,0,1,620.0000000000001,126) translate(110.04999999999998 71.4)"/><use xlink:href="#k" transform="matrix(1,0,0,1,620.0000000000001,126) translate(140 71.4)"/><use xlink:href="#l" transform="matrix(1,0,0,1,620.0000000000001,126) translate(216.9 71.4)"/><use xlink:href="#b" transform="matrix(1,0,0,1,620.0000000000001,126) translate(242.85 71.4)"/><use xlink:href="#m" transform="matrix(1,0,0,1,620.0000000000001,126) translate(282.8 71.4)"/><path d="M480 343c0-1.66 1.34-3 3-3h194c1.66 0 3 1.34 3 3v130c0 1.66-1.34 3-3 3H483c-1.66 0-3-1.34-3-3z" fill="#e5e5e5"/><path d="M480 343c0-1.66 1.34-3 3-3h194c1.66 0 3 1.34 3 3v130c0 1.66-1.34 3-3 3H483c-1.66 0-3-1.34-3-3zM480 380h200M540 380v96" stroke="#b2b2b2" stroke-width="4" fill="none"/><use xlink:href="#n" transform="matrix(1,0,0,1,490,340) translate(56.525 23.6)"/><use xlink:href="#o" transform="matrix(1,0,0,1,485,382.5) translate(13 17.1)"/><use xlink:href="#p" transform="matrix(1,0,0,1,545,382.5) translate(23.549999999999997 17.1)"/><use xlink:href="#q" transform="matrix(1,0,0,1,485,414.5) translate(13.524999999999999 17.1)"/><use xlink:href="#r" transform="matrix(1,0,0,1,545,414.5) translate(23.074999999999996 17.1)"/><use xlink:href="#s" transform="matrix(1,0,0,1,545,446.5) translate(29.025 17.1)"/><path d="M280 143c0-1.66 1.34-3 3-3h194c1.66 0 3 1.34 3 3v162c0 1.66-1.34 3-3 3H283c-1.66 0-3-1.34-3-3z" fill="#e5e5e5"/><path d="M280 143c0-1.66 1.34-3 3-3h194c1.66 0 3 1.34 3 3v162c0 1.66-1.34 3-3 3H283c-1.66 0-3-1.34-3-3zM280 180h200M340 180v128" stroke="#b2b2b2" stroke-width="4" fill="none"/><use xlink:href="#t" transform="matrix(1,0,0,1,290,140) translate(54.025 23.6)"/><use xlink:href="#o" transform="matrix(1,0,0,1,285,182.5) translate(13 17.1)"/><use xlink:href="#r" transform="matrix(1,0,0,1,345,182.5) translate(23.074999999999996 17.1)"/><use xlink:href="#u" transform="matrix(1,0,0,1,345,214.5) translate(0 17.1)"/><use xlink:href="#v" transform="matrix(1,0,0,1,345,214.5) translate(25 17.1)"/><use xlink:href="#w" transform="matrix(1,0,0,1,345,246.5) translate(59 17.1)"/><use xlink:href="#x" transform="matrix(1,0,0,1,345,278.5) translate(59 17.1)"/><path d="M1240 343c0-1.66 1.34-3 3-3h194c1.66 0 3 1.34 3 3v130c0 1.66-1.34 3-3 3h-194c-1.66 0-3-1.34-3-3z" fill="#e5e5e5"/><path d="M1240 343c0-1.66 1.34-3 3-3h194c1.66 0 3 1.34 3 3v130c0 1.66-1.34 3-3 3h-194c-1.66 0-3-1.34-3-3zM1240 380h200M1300 380v96" stroke="#b2b2b2" stroke-width="4" fill="none"/><use xlink:href="#y" transform="matrix(1,0,0,1,1250,340) translate(72.675 23.6)"/><use xlink:href="#o" transform="matrix(1,0,0,1,1245,382.5) translate(13 17.1)"/><use xlink:href="#z" transform="matrix(1,0,0,1,1305,382.5) translate(39.525 17.1)"/><use xlink:href="#A" transform="matrix(1,0,0,1,1305,414.5) translate(45.5 17.1)"/><use xlink:href="#B" transform="matrix(1,0,0,1,1305,446.5) translate(12.074999999999996 17.1)"/><path d="M700 803c0-1.66 1.34-3 3-3h194c1.66 0 3 1.34 3 3v130c0 1.66-1.34 3-3 3H703c-1.66 0-3-1.34-3-3z" fill="#e5e5e5"/><path d="M700 803c0-1.66 1.34-3 3-3h194c1.66 0 3 1.34 3 3v130c0 1.66-1.34 3-3 3H703c-1.66 0-3-1.34-3-3zM700 840h200M760 840v96" stroke="#b2b2b2" stroke-width="4" fill="none"/><use xlink:href="#C" transform="matrix(1,0,0,1,710,800) translate(56.55 23.6)"/><use xlink:href="#o" transform="matrix(1,0,0,1,705,842.5) translate(13 17.1)"/><use xlink:href="#D" transform="matrix(1,0,0,1,765,842.5) translate(24.074999999999996 17.1)"/><use xlink:href="#A" transform="matrix(1,0,0,1,765,874.5) translate(45.5 17.1)"/><use xlink:href="#E" transform="matrix(1,0,0,1,765,906.5) translate(20.074999999999996 17.1)"/><path d="M360 743c0-1.66 1.34-3 3-3h194c1.66 0 3 1.34 3 3v194c0 1.66-1.34 3-3 3H363c-1.66 0-3-1.34-3-3z" fill="#e5e5e5"/><path d="M360 743c0-1.66 1.34-3 3-3h194c1.66 0 3 1.34 3 3v194c0 1.66-1.34 3-3 3H363c-1.66 0-3-1.34-3-3zM360 780h200M420 780v160" stroke="#b2b2b2" stroke-width="4" fill="none"/><use xlink:href="#F" transform="matrix(1,0,0,1,370,740) translate(71.7 23.6)"/><use xlink:href="#o" transform="matrix(1,0,0,1,365,782.5) translate(13 17.1)"/><use xlink:href="#G" transform="matrix(1,0,0,1,425,782.5) translate(38.55 17.1)"/><use xlink:href="#q" transform="matrix(1,0,0,1,365,814.5) translate(13.524999999999999 17.1)"/><use xlink:href="#D" transform="matrix(1,0,0,1,425,814.5) translate(24.074999999999996 17.1)"/><use xlink:href="#H" transform="matrix(1,0,0,1,425,846.5) translate(50.55 17.1)"/><use xlink:href="#A" transform="matrix(1,0,0,1,425,878.5) translate(45.5 17.1)"/><use xlink:href="#E" transform="matrix(1,0,0,1,425,910.5) translate(20.074999999999996 17.1)"/><path d="M480 428H243c-1.66 0-3-1.34-3-3V199c0-1.66 1.34-3 3-3h37" fill="none"/><path d="M480 428h-9.88m-9.87 0H440.5m-9.88 0h-19.75m-9.87 0h-19.75m-9.88 0h-19.75m-9.87 0H322m-9.88 0h-19.75m-9.87 0h-19.75m-9.88 0H243l-2.12-.88L240 425v-9.42m0-9.4v-18.85m0-9.4v-18.85m0-9.4v-18.85m0-9.4v-18.85m0-9.4v-18.85m0-9.4v-18.85m0-9.4v-18.85m0-9.4V199l.88-2.12L243 196h12.33m12.34 0H280" stroke="#303030" stroke-width="2" fill="none"/><path d="M480 418v1.12L462.24 428l17.76 8.88V438l-.45.9-21.8-10.9 21.8-10.9z" fill="#303030"/><path fill="#fff"/><path d="M461 438h-2v-20h2z" fill="#303030"/><path fill="#fff"/><path d="M271 206h-2v-20h2z" fill="#303030"/><path fill="#fff"/><path d="M261 206h-2v-20h2z" fill="#303030"/><path d="M280 503c0-1.66 1.34-3 3-3h194c1.66 0 3 1.34 3 3v172c0 1.66-1.34 3-3 3H283c-1.66 0-3-1.34-3-3z" fill="#e5e5e5"/><path d="M280 503c0-1.66 1.34-3 3-3h194c1.66 0 3 1.34 3 3v172c0 1.66-1.34 3-3 3H283c-1.66 0-3-1.34-3-3zM280 540h200M340 540v138" stroke="#b2b2b2" stroke-width="4" fill="none"/><use xlink:href="#I" transform="matrix(1,0,0,1,290,500) translate(27.775 23.6)"/><use xlink:href="#J" transform="matrix(1,0,0,1,285,542.5) translate(10.5 16.799999999999997)"/><use xlink:href="#K" transform="matrix(1,0,0,1,285,542.5) translate(13.524999999999999 38.4)"/><use xlink:href="#p" transform="matrix(1,0,0,1,345,542.5) translate(23.549999999999997 27.6)"/><use xlink:href="#J" transform="matrix(1,0,0,1,285,595.5) translate(10.5 16.799999999999997)"/><use xlink:href="#K" transform="matrix(1,0,0,1,285,595.5) translate(13.524999999999999 38.4)"/><use xlink:href="#G" transform="matrix(1,0,0,1,345,595.5) translate(38.55 27.6)"/><use xlink:href="#L" transform="matrix(1,0,0,1,345,648.5) translate(43.55 17.1)"/><path d="M480 396H193c-1.66 0-3 1.34-3 3v164.5c0 1.66 1.34 3 3 3h87" stroke="#303030" stroke-width="2" fill="none"/><path fill="#fff"/><path d="M471 406h-2v-20h2z" fill="#303030"/><path fill="#fff"/><path d="M461 406h-2v-20h2zM280 556.5v1.12l-17.76 8.88 17.76 8.88v1.12l-.45.9-21.8-10.9 21.8-10.9z" fill="#303030"/><path d="M260 566.5l-.5 3.16-1.43 2.75-2.16 2.17-2.74 1.42-3.16.5-3.16-.5-2.75-1.43-2.17-2.16-1.42-2.74-.5-3.16.5-3.16 1.43-2.75 2.16-2.17 2.74-1.42 3.16-.5 3.16.5 2.75 1.43 2.17 2.16 1.42 2.74.5 3.16z" fill="#fff"/><path d="M253.48 556.05l3.02 1.56 2.4 2.4 1.55 3.02.54 3.32-1 .16 1 .16-.55 3.32-1.56 3.02-2.4 2.4-3.02 1.55-3.48.56-3.48-.55-3.02-1.56-2.4-2.4-1.55-3.02-.56-3.48.55-3.48 1.56-3.02 2.4-2.4 3.02-1.55 3.48-.56zm-6.32 1.92l-2.47 1.28-1.95 1.94-1.28 2.46-.46 2.84.47 2.84 1.28 2.47 1.94 1.95 2.46 1.28 2.84.46 2.84-.47 2.47-1.28 1.95-1.94 1.28-2.46.46-2.84-.47-2.84-1.28-2.47-1.94-1.95-2.46-1.28-2.84-.46z" fill="#303030"/><path d="M360 796H243c-1.66 0-3-1.34-3-3V622.5c0-1.66 1.34-3 3-3h37" stroke="#303030" stroke-width="2" fill="none"/><path fill="#fff"/><path d="M351 806h-2v-20h2z" fill="#303030"/><path fill="#fff"/><path d="M341 806h-2v-20h2zM280 609.5v1.12l-17.76 8.88 17.76 8.88v1.12l-.45.9-21.8-10.9 21.8-10.9z" fill="#303030"/><path d="M260 619.5l-.5 3.16-1.43 2.75-2.16 2.17-2.74 1.42-3.16.5-3.16-.5-2.75-1.43-2.17-2.16-1.42-2.74-.5-3.16.5-3.16 1.43-2.75 2.16-2.17 2.74-1.42 3.16-.5 3.16.5 2.75 1.43 2.17 2.16 1.42 2.74.5 3.16z" fill="#fff"/><path d="M253.48 609.05l3.02 1.56 2.4 2.4 1.55 3.02.54 3.32-1 .16 1 .16-.55 3.32-1.56 3.02-2.4 2.4-3.02 1.55-3.48.56-3.48-.55-3.02-1.56-2.4-2.4-1.55-3.02-.56-3.48.55-3.48 1.56-3.02 2.4-2.4 3.02-1.55 3.48-.56zm-6.32 1.92l-2.47 1.28-1.95 1.94-1.28 2.46-.46 2.84.47 2.84 1.28 2.47 1.94 1.95 2.46 1.28 2.84.46 2.84-.47 2.47-1.28 1.95-1.94 1.28-2.46.46-2.84-.47-2.84-1.28-2.47-1.94-1.95-2.46-1.28-2.84-.46z" fill="#303030"/><path d="M699 856h-66.5c-1.66 0-3-1.34-3-3v-22c0-1.66-1.34-3-3-3H560" fill="none"/><path d="M699 856h-11.08m-11.1 0h-22.15m-11.1 0H632.5l-2.12-.88-.88-2.12v-7.33m0-7.34V831l-.88-2.12-2.12-.88h-11.08m-11.1 0h-22.15m-11.1 0H560" stroke="#303030" stroke-width="2" fill="none"/><path fill="#fff"/><path d="M690 866h-2v-20h2z" fill="#303030"/><path fill="#fff"/><path d="M680 866h-2v-20h2zM582.24 828l-21.8 10.9-.44-.9v-1.12l17.76-8.88-17.76-8.88V818l.45-.9z" fill="#303030"/><path d="M600 828l-.5 3.16-1.43 2.75-2.16 2.17-2.74 1.42-3.16.5-3.16-.5-2.75-1.43-2.17-2.16-1.42-2.74-.5-3.16.5-3.16 1.43-2.75 2.16-2.17 2.74-1.42 3.16-.5 3.16.5 2.75 1.43 2.17 2.16 1.42 2.74.5 3.16z" fill="#fff"/><path d="M593.48 817.55l3.02 1.56 2.4 2.4 1.55 3.02.54 3.32-1 .16 1 .16-.55 3.32-1.56 3.02-2.4 2.4-3.02 1.55-3.48.56-3.48-.55-3.02-1.56-2.4-2.4-1.55-3.02L579 828l.55-3.48 1.56-3.02 2.4-2.4 3.02-1.55L590 817zm-6.32 1.92l-2.47 1.28-1.95 1.94-1.28 2.46L581 828l.47 2.84 1.28 2.47 1.94 1.95 2.46 1.28 2.84.46 2.84-.47 2.47-1.28 1.95-1.94 1.28-2.46.46-2.84-.47-2.84-1.28-2.47-1.94-1.95-2.46-1.28L590 819z" fill="#303030"/><path d="M840 311c0-1.66 1.34-3 3-3h194c1.66 0 3 1.34 3 3v130c0 1.66-1.34 3-3 3H843c-1.66 0-3-1.34-3-3z" fill="#e5e5e5"/><path d="M840 311c0-1.66 1.34-3 3-3h194c1.66 0 3 1.34 3 3v130c0 1.66-1.34 3-3 3H843c-1.66 0-3-1.34-3-3zM840 348h200M900 348v96" stroke="#b2b2b2" stroke-width="4" fill="none"/><use xlink:href="#M" transform="matrix(1,0,0,1,850,308) translate(68.025 23.6)"/><use xlink:href="#q" transform="matrix(1,0,0,1,845,350.5) translate(13.524999999999999 17.1)"/><use xlink:href="#z" transform="matrix(1,0,0,1,905,350.5) translate(0 17.1)"/><use xlink:href="#q" transform="matrix(1,0,0,1,845,382.5) translate(13.524999999999999 17.1)"/><use xlink:href="#p" transform="matrix(1,0,0,1,905,382.5) translate(0 17.1)"/><use xlink:href="#o" transform="matrix(1,0,0,1,845,414.5) translate(13 17.1)"/><use xlink:href="#N" transform="matrix(1,0,0,1,905,414.5) translate(0 17.1)"/><path d="M1240 396h-97c-1.66 0-3-1.34-3-3v-26c0-1.66-1.34-3-3-3h-97" fill="none"/><path d="M1240 396h-10.78m-10.78 0h-21.55m-10.8 0h-21.54m-10.78 0H1143l-2.12-.88-.88-2.12v-8.67m0-8.66V367l-.88-2.12-2.12-.88h-10.78m-10.78 0h-21.55m-10.8 0h-21.54m-10.78 0H1040" stroke="#303030" stroke-width="2" fill="none"/><path fill="#fff"/><path d="M1231 406h-2v-20h2z" fill="#303030"/><path fill="#fff"/><path d="M1221 406h-2v-20h2zM1062.24 364l-21.8 10.9-.44-.9v-1.12l17.76-8.88-17.76-8.88V354l.45-.9z" fill="#303030"/><path d="M1080 364l-.5 3.16-1.43 2.75-2.16 2.17-2.74 1.42-3.16.5-3.16-.5-2.75-1.43-2.17-2.16-1.42-2.74-.5-3.16.5-3.16 1.43-2.75 2.16-2.17 2.74-1.42 3.16-.5 3.16.5 2.75 1.43 2.17 2.16 1.42 2.74.5 3.16z" fill="#fff"/><path d="M1073.48 353.55l3.02 1.56 2.4 2.4 1.55 3.02.54 3.32-1 .16 1 .16-.55 3.32-1.56 3.02-2.4 2.4-3.02 1.55-3.48.56-3.48-.55-3.02-1.56-2.4-2.4-1.55-3.02-.56-3.48.55-3.48 1.56-3.02 2.4-2.4 3.02-1.55 3.48-.56zm-6.32 1.92l-2.47 1.28-1.95 1.94-1.28 2.46-.46 2.84.47 2.84 1.28 2.47 1.94 1.95 2.46 1.28 2.84.46 2.84-.47 2.47-1.28 1.95-1.94 1.28-2.46.46-2.84-.47-2.84-1.28-2.47-1.94-1.95-2.46-1.28-2.84-.46z" fill="#303030"/><path d="M680 396h160" fill="none"/><path d="M680 396h10.67m10.66 0h21.34m10.66 0h21.34m10.66 0h21.34m10.66 0h21.34m10.66 0H840" stroke="#303030" stroke-width="2" fill="none"/><path fill="#fff"/><path d="M691 406h-2v-20h2z" fill="#303030"/><path fill="#fff"/><path d="M701 406h-2v-20h2zM840 386v1.12L822.24 396l17.76 8.88V406l-.45.9-21.8-10.9 21.8-10.9z" fill="#303030"/><path d="M820 396l-.5 3.16-1.43 2.75-2.16 2.17-2.74 1.42-3.16.5-3.16-.5-2.75-1.43-2.17-2.16-1.42-2.74-.5-3.16.5-3.16 1.43-2.75 2.16-2.17 2.74-1.42 3.16-.5 3.16.5 2.75 1.43 2.17 2.16 1.42 2.74.5 3.16z" fill="#fff"/><path d="M813.48 385.55l3.02 1.56 2.4 2.4 1.55 3.02.54 3.32-1 .16 1 .16-.55 3.32-1.56 3.02-2.4 2.4-3.02 1.55-3.48.56-3.48-.55-3.02-1.56-2.4-2.4-1.55-3.02L799 396l.55-3.48 1.56-3.02 2.4-2.4 3.02-1.55L810 385zm-6.32 1.92l-2.47 1.28-1.95 1.94-1.28 2.46L801 396l.47 2.84 1.28 2.47 1.94 1.95 2.46 1.28 2.84.46 2.84-.47 2.47-1.28 1.95-1.94 1.28-2.46.46-2.84-.47-2.84-1.28-2.47-1.94-1.95-2.46-1.28L810 387z" fill="#303030"/><defs><path d="M63-220v92h138v28H63V0H30v-248h175v28H63" id="O"/><path d="M100-194c62-1 85 37 85 99 1 63-27 99-86 99S16-35 15-95c0-66 28-99 85-99zM99-20c44 1 53-31 53-75 0-43-8-75-51-75s-53 32-53 75 10 74 51 75" id="P"/><path d="M114-163C36-179 61-72 57 0H25l-1-190h30c1 12-1 29 2 39 6-27 23-49 58-41v29" id="Q"/><g id="a"><use transform="matrix(0.05,0,0,0.05,0,0)" xlink:href="#O"/><use transform="matrix(0.05,0,0,0.05,10.950000000000001,0)" xlink:href="#P"/><use transform="matrix(0.05,0,0,0.05,20.950000000000003,0)" xlink:href="#Q"/></g><path d="M106-169C34-169 62-67 57 0H25v-261h32l-1 103c12-21 28-36 61-36 89 0 53 116 60 194h-32v-121c2-32-8-49-39-48" id="R"/><path d="M108 0H70L1-190h34L89-25l56-165h34" id="S"/><path d="M100-194c63 0 86 42 84 106H49c0 40 14 67 53 68 26 1 43-12 49-29l28 8c-11 28-37 45-77 45C44 4 14-33 15-96c1-61 26-98 85-98zm52 81c6-60-76-77-97-28-3 7-6 17-6 28h103" id="T"/><g id="b"><use transform="matrix(0.05,0,0,0.05,0,0)" xlink:href="#R"/><use transform="matrix(0.05,0,0,0.05,10,0)" xlink:href="#S"/><use transform="matrix(0.05,0,0,0.05,19,0)" xlink:href="#T"/><use transform="matrix(0.05,0,0,0.05,29,0)" xlink:href="#Q"/></g><path d="M101-234c-31-9-42 10-38 44h38v23H63V0H32v-167H5v-23h27c-7-52 17-82 69-68v24" id="U"/><path d="M143 0L79-87 56-68V0H24v-261h32v163l83-92h37l-77 82L181 0h-38" id="V"/><path d="M210-169c-67 3-38 105-44 169h-31v-121c0-29-5-50-35-48C34-165 62-65 56 0H25l-1-190h30c1 10-1 24 2 32 10-44 99-50 107 0 11-21 27-35 58-36 85-2 47 119 55 194h-31v-121c0-29-5-49-35-48" id="W"/><path d="M135-143c-3-34-86-38-87 0 15 53 115 12 119 90S17 21 10-45l28-5c4 36 97 45 98 0-10-56-113-15-118-90-4-57 82-63 122-42 12 7 21 19 24 35" id="X"/><path d="M59-47c-2 24 18 29 38 22v24C64 9 27 4 27-40v-127H5v-23h24l9-43h21v43h35v23H59v120" id="Y"/><g id="c"><use transform="matrix(0.05,0,0,0.05,0,0)" xlink:href="#U"/><use transform="matrix(0.05,0,0,0.05,5,0)" xlink:href="#P"/><use transform="matrix(0.05,0,0,0.05,15,0)" xlink:href="#Q"/><use transform="matrix(0.05,0,0,0.05,20.95,0)" xlink:href="#T"/><use transform="matrix(0.05,0,0,0.05,30.950000000000003,0)" xlink:href="#V"/><use transform="matrix(0.05,0,0,0.05,39.95,0)" xlink:href="#P"/><use transform="matrix(0.05,0,0,0.05,49.95,0)" xlink:href="#W"/><use transform="matrix(0.05,0,0,0.05,64.9,0)" xlink:href="#X"/><use transform="matrix(0.05,0,0,0.05,73.9,0)" xlink:href="#Y"/></g><path d="M141-36C126-15 110 5 73 4 37 3 15-17 15-53c-1-64 63-63 125-63 3-35-9-54-41-54-24 1-41 7-42 31l-33-3c5-37 33-52 76-52 45 0 72 20 72 64v82c-1 20 7 32 28 27v20c-31 9-61-2-59-35zM48-53c0 20 12 33 32 33 41-3 63-29 60-74-43 2-92-5-92 41" id="Z"/><g id="d"><use transform="matrix(0.05,0,0,0.05,0,0)" xlink:href="#Z"/><use transform="matrix(0.05,0,0,0.05,10,0)" xlink:href="#S"/></g><path d="M205 0l-28-72H64L36 0H1l101-248h38L239 0h-34zm-38-99l-47-123c-12 45-31 82-46 123h93" id="aa"/><path d="M68-38c1 34 0 65-14 84H32c9-13 17-26 17-46H33v-38h35" id="ab"/><g id="e"><use transform="matrix(0.05,0,0,0.05,0,0)" xlink:href="#aa"/><use transform="matrix(0.05,0,0,0.05,12,0)" xlink:href="#ab"/></g><g id="f"><use transform="matrix(0.05,0,0,0.05,0,0)" xlink:href="#R"/><use transform="matrix(0.05,0,0,0.05,10,0)" xlink:href="#S"/><use transform="matrix(0.05,0,0,0.05,19,0)" xlink:href="#P"/><use transform="matrix(0.05,0,0,0.05,29,0)" xlink:href="#Q"/></g><path d="M117-194c89-4 53 116 60 194h-32v-121c0-31-8-49-39-48C34-167 62-67 57 0H25l-1-190h30c1 10-1 24 2 32 11-22 29-35 61-36" id="ac"/><path d="M177-190C167-65 218 103 67 71c-23-6-38-20-44-43l32-5c15 47 100 32 89-28v-30C133-14 115 1 83 1 29 1 15-40 15-95c0-56 16-97 71-98 29-1 48 16 59 35 1-10 0-23 2-32h30zM94-22c36 0 50-32 50-73 0-42-14-75-50-75-39 0-46 34-46 75s6 73 46 73" id="ad"/><g id="g"><use transform="matrix(0.05,0,0,0.05,0,0)" xlink:href="#W"/><use transform="matrix(0.05,0,0,0.05,14.950000000000001,0)" xlink:href="#Z"/><use transform="matrix(0.05,0,0,0.05,24.950000000000003,0)" xlink:href="#ac"/><use transform="matrix(0.05,0,0,0.05,34.95,0)" xlink:href="#ad"/><use transform="matrix(0.05,0,0,0.05,44.95,0)" xlink:href="#T"/></g><g id="h"><use transform="matrix(0.05,0,0,0.05,0,0)" xlink:href="#V"/><use transform="matrix(0.05,0,0,0.05,9,0)" xlink:href="#Z"/><use transform="matrix(0.05,0,0,0.05,19,0)" xlink:href="#ac"/></g><path d="M24 0v-261h32V0H24" id="ae"/><g id="i"><use transform="matrix(0.05,0,0,0.05,0,0)" xlink:href="#T"/><use transform="matrix(0.05,0,0,0.05,10,0)" xlink:href="#ae"/><use transform="matrix(0.05,0,0,0.05,13.949999999999998,0)" xlink:href="#ae"/><use transform="matrix(0.05,0,0,0.05,17.9,0)" xlink:href="#T"/><use transform="matrix(0.05,0,0,0.05,27.899999999999995,0)" xlink:href="#Q"/></g><path d="M141-36C126-15 110 5 73 4 37 3 15-17 15-53c-1-64 63-63 125-63 3-35-9-54-41-54-24 1-41 7-42 31l-33-3c5-37 33-52 76-52 45 0 72 20 72 64v82c-1 20 7 32 28 27v20c-31 9-61-2-59-35zM48-53c0 20 12 33 32 33 41-3 63-29 60-74-43 2-92-5-92 41zm50-237c26 0 42 16 42 42 0 27-18 40-42 43-25-2-43-16-43-43 0-26 17-42 43-42zm-24 42c-2 26 37 32 45 10 6-16-3-33-21-33-16 0-23 10-24 23" id="af"/><g id="j"><use transform="matrix(0.05,0,0,0.05,0,0)" xlink:href="#W"/><use transform="matrix(0.05,0,0,0.05,14.950000000000001,0)" xlink:href="#af"/></g><path d="M24-231v-30h32v30H24zM24 0v-190h32V0H24" id="ag"/><g id="k"><use transform="matrix(0.05,0,0,0.05,0,0)" xlink:href="#T"/><use transform="matrix(0.05,0,0,0.05,10,0)" xlink:href="#V"/><use transform="matrix(0.05,0,0,0.05,19,0)" xlink:href="#X"/><use transform="matrix(0.05,0,0,0.05,28,0)" xlink:href="#ag"/><use transform="matrix(0.05,0,0,0.05,31.950000000000003,0)" xlink:href="#X"/><use transform="matrix(0.05,0,0,0.05,40.95,0)" xlink:href="#Y"/><use transform="matrix(0.05,0,0,0.05,45.95,0)" xlink:href="#T"/><use transform="matrix(0.05,0,0,0.05,55.95,0)" xlink:href="#Q"/><use transform="matrix(0.05,0,0,0.05,61.900000000000006,0)" xlink:href="#T"/></g><g id="l"><use transform="matrix(0.05,0,0,0.05,0,0)" xlink:href="#U"/><use transform="matrix(0.05,0,0,0.05,5,0)" xlink:href="#P"/><use transform="matrix(0.05,0,0,0.05,15,0)" xlink:href="#Q"/></g><path d="M160-131c35 5 61 23 61 61C221 17 115-2 30 0v-248c76 3 177-17 177 60 0 33-19 50-47 57zm-97-11c50-1 110 9 110-42 0-47-63-36-110-37v79zm0 115c55-2 124 14 124-45 0-56-70-42-124-44v89" id="ah"/><use transform="matrix(0.05,0,0,0.05,0,0)" xlink:href="#ah" id="m"/><path fill="#303030" d="M205 0l-28-72H64L36 0H1l101-248h38L239 0h-34zm-38-99l-47-123c-12 45-31 82-46 123h93" id="ai"/><path fill="#303030" d="M84 4C-5 8 30-112 23-190h32v120c0 31 7 50 39 49 72-2 45-101 50-169h31l1 190h-30c-1-10 1-25-2-33-11 22-28 36-60 37" id="aj"/><path fill="#303030" d="M59-47c-2 24 18 29 38 22v24C64 9 27 4 27-40v-127H5v-23h24l9-43h21v43h35v23H59v120" id="ak"/><path fill="#303030" d="M100-194c62-1 85 37 85 99 1 63-27 99-86 99S16-35 15-95c0-66 28-99 85-99zM99-20c44 1 53-31 53-75 0-43-8-75-51-75s-53 32-53 75 10 74 51 75" id="al"/><path fill="#303030" d="M210-169c-67 3-38 105-44 169h-31v-121c0-29-5-50-35-48C34-165 62-65 56 0H25l-1-190h30c1 10-1 24 2 32 10-44 99-50 107 0 11-21 27-35 58-36 85-2 47 119 55 194h-31v-121c0-29-5-49-35-48" id="am"/><path fill="#303030" d="M141-36C126-15 110 5 73 4 37 3 15-17 15-53c-1-64 63-63 125-63 3-35-9-54-41-54-24 1-41 7-42 31l-33-3c5-37 33-52 76-52 45 0 72 20 72 64v82c-1 20 7 32 28 27v20c-31 9-61-2-59-35zM48-53c0 20 12 33 32 33 41-3 63-29 60-74-43 2-92-5-92 41" id="an"/><g id="n"><use transform="matrix(0.05,0,0,0.05,0,0)" xlink:href="#ai"/><use transform="matrix(0.05,0,0,0.05,12,0)" xlink:href="#aj"/><use transform="matrix(0.05,0,0,0.05,22,0)" xlink:href="#ak"/><use transform="matrix(0.05,0,0,0.05,27,0)" xlink:href="#al"/><use transform="matrix(0.05,0,0,0.05,37,0)" xlink:href="#am"/><use transform="matrix(0.05,0,0,0.05,51.95,0)" xlink:href="#an"/><use transform="matrix(0.05,0,0,0.05,61.95,0)" xlink:href="#ak"/></g><path fill="#303030" d="M30-248c87 1 191-15 191 75 0 78-77 80-158 76V0H30v-248zm33 125c57 0 124 11 124-50 0-59-68-47-124-48v98" id="ao"/><path fill="#303030" d="M194 0L95-120 63-95V0H30v-248h33v124l119-124h40L117-140 236 0h-42" id="ap"/><g id="o"><use transform="matrix(0.05,0,0,0.05,0,0)" xlink:href="#ao"/><use transform="matrix(0.05,0,0,0.05,12,0)" xlink:href="#ap"/></g><path fill="#303030" d="M33 0v-248h34V0H33" id="aq"/><path fill="#303030" d="M30-248c118-7 216 8 213 122C240-48 200 0 122 0H30v-248zM63-27c89 8 146-16 146-99s-60-101-146-95v194" id="ar"/><g id="p"><use transform="matrix(0.05,0,0,0.05,0,0)" xlink:href="#an"/><use transform="matrix(0.05,0,0,0.05,10,0)" xlink:href="#aj"/><use transform="matrix(0.05,0,0,0.05,20,0)" xlink:href="#ak"/><use transform="matrix(0.05,0,0,0.05,25,0)" xlink:href="#al"/><use transform="matrix(0.05,0,0,0.05,35,0)" xlink:href="#am"/><use transform="matrix(0.05,0,0,0.05,49.95,0)" xlink:href="#an"/><use transform="matrix(0.05,0,0,0.05,59.95,0)" xlink:href="#ak"/><use transform="matrix(0.05,0,0,0.05,64.95,0)" xlink:href="#aq"/><use transform="matrix(0.05,0,0,0.05,69.95,0)" xlink:href="#ar"/></g><path fill="#303030" d="M63-220v92h138v28H63V0H30v-248h175v28H63" id="as"/><g id="q"><use transform="matrix(0.05,0,0,0.05,0,0)" xlink:href="#as"/><use transform="matrix(0.05,0,0,0.05,10.950000000000001,0)" xlink:href="#ap"/></g><path fill="#303030" d="M24 0v-261h32V0H24" id="at"/><path fill="#303030" d="M143 0L79-87 56-68V0H24v-261h32v163l83-92h37l-77 82L181 0h-38" id="au"/><path fill="#303030" d="M135-143c-3-34-86-38-87 0 15 53 115 12 119 90S17 21 10-45l28-5c4 36 97 45 98 0-10-56-113-15-118-90-4-57 82-63 122-42 12 7 21 19 24 35" id="av"/><path fill="#303030" d="M24-231v-30h32v30H24zM-9 49c24 4 33-6 33-30v-209h32V24c2 40-23 58-65 49V49" id="aw"/><path fill="#303030" d="M117-194c89-4 53 116 60 194h-32v-121c0-31-8-49-39-48C34-167 62-67 57 0H25l-1-190h30c1 10-1 24 2 32 11-22 29-35 61-36" id="ax"/><g id="r"><use transform="matrix(0.05,0,0,0.05,0,0)" xlink:href="#at"/><use transform="matrix(0.05,0,0,0.05,3.95,0)" xlink:href="#al"/><use transform="matrix(0.05,0,0,0.05,13.949999999999998,0)" xlink:href="#au"/><use transform="matrix(0.05,0,0,0.05,22.95,0)" xlink:href="#an"/><use transform="matrix(0.05,0,0,0.05,32.95,0)" xlink:href="#av"/><use transform="matrix(0.05,0,0,0.05,41.95,0)" xlink:href="#aw"/><use transform="matrix(0.05,0,0,0.05,45.900000000000006,0)" xlink:href="#al"/><use transform="matrix(0.05,0,0,0.05,55.900000000000006,0)" xlink:href="#ax"/><use transform="matrix(0.05,0,0,0.05,65.9,0)" xlink:href="#aq"/><use transform="matrix(0.05,0,0,0.05,70.9,0)" xlink:href="#ar"/></g><path fill="#303030" d="M115-194c55 1 70 41 70 98S169 2 115 4C84 4 66-9 55-30l1 105H24l-1-265h31l2 30c10-21 28-34 59-34zm-8 174c40 0 45-34 45-75s-6-73-45-74c-42 0-51 32-51 76 0 43 10 73 51 73" id="ay"/><path fill="#303030" d="M24-231v-30h32v30H24zM24 0v-190h32V0H24" id="az"/><path fill="#303030" d="M100-194c63 0 86 42 84 106H49c0 40 14 67 53 68 26 1 43-12 49-29l28 8c-11 28-37 45-77 45C44 4 14-33 15-96c1-61 26-98 85-98zm52 81c6-60-76-77-97-28-3 7-6 17-6 28h103" id="aA"/><g id="s"><use transform="matrix(0.05,0,0,0.05,0,0)" xlink:href="#au"/><use transform="matrix(0.05,0,0,0.05,9,0)" xlink:href="#an"/><use transform="matrix(0.05,0,0,0.05,19,0)" xlink:href="#ay"/><use transform="matrix(0.05,0,0,0.05,29,0)" xlink:href="#an"/><use transform="matrix(0.05,0,0,0.05,39,0)" xlink:href="#av"/><use transform="matrix(0.05,0,0,0.05,48,0)" xlink:href="#az"/><use transform="matrix(0.05,0,0,0.05,51.95,0)" xlink:href="#ak"/><use transform="matrix(0.05,0,0,0.05,56.95,0)" xlink:href="#aA"/><use transform="matrix(0.05,0,0,0.05,66.95,0)" xlink:href="#ak"/></g><path fill="#303030" d="M30 0v-248h33v221h125V0H30" id="aB"/><g id="t"><use transform="matrix(0.05,0,0,0.05,0,0)" xlink:href="#aB"/><use transform="matrix(0.05,0,0,0.05,10,0)" xlink:href="#al"/><use transform="matrix(0.05,0,0,0.05,20,0)" xlink:href="#au"/><use transform="matrix(0.05,0,0,0.05,29,0)" xlink:href="#an"/><use transform="matrix(0.05,0,0,0.05,39,0)" xlink:href="#av"/><use transform="matrix(0.05,0,0,0.05,48,0)" xlink:href="#aw"/><use transform="matrix(0.05,0,0,0.05,51.95,0)" xlink:href="#al"/><use transform="matrix(0.05,0,0,0.05,61.95,0)" xlink:href="#ax"/></g><g id="v"><use transform="matrix(0.05,0,0,0.05,0,0)" xlink:href="#ax"/><use transform="matrix(0.05,0,0,0.05,10,0)" xlink:href="#an"/><use transform="matrix(0.05,0,0,0.05,20,0)" xlink:href="#am"/><use transform="matrix(0.05,0,0,0.05,34.95,0)" xlink:href="#aA"/></g><path fill="#303030" d="M195 0l-74-108L45 0H8l94-129-87-119h37l69 98 67-98h37l-84 118L233 0h-38" id="aC"/><use transform="matrix(0.05,0,0,0.05,0,0)" xlink:href="#aC" id="w"/><path fill="#303030" d="M137-103V0h-34v-103L8-248h37l75 118 75-118h37" id="aD"/><use transform="matrix(0.05,0,0,0.05,0,0)" xlink:href="#aD" id="x"/><path fill="#303030" d="M137 0h-34L2-248h35l83 218 83-218h36" id="aE"/><g id="y"><use transform="matrix(0.05,0,0,0.05,0,0)" xlink:href="#aE"/><use transform="matrix(0.05,0,0,0.05,10.65,0)" xlink:href="#an"/><use transform="matrix(0.05,0,0,0.05,20.65,0)" xlink:href="#au"/><use transform="matrix(0.05,0,0,0.05,29.649999999999995,0)" xlink:href="#ak"/></g><path fill="#303030" d="M108 0H70L1-190h34L89-25l56-165h34" id="aF"/><g id="z"><use transform="matrix(0.05,0,0,0.05,0,0)" xlink:href="#aF"/><use transform="matrix(0.05,0,0,0.05,9,0)" xlink:href="#an"/><use transform="matrix(0.05,0,0,0.05,19,0)" xlink:href="#au"/><use transform="matrix(0.05,0,0,0.05,28,0)" xlink:href="#ak"/><use transform="matrix(0.05,0,0,0.05,33,0)" xlink:href="#aq"/><use transform="matrix(0.05,0,0,0.05,38,0)" xlink:href="#ar"/></g><g id="A"><use transform="matrix(0.05,0,0,0.05,0,0)" xlink:href="#ax"/><use transform="matrix(0.05,0,0,0.05,10,0)" xlink:href="#an"/><use transform="matrix(0.05,0,0,0.05,20,0)" xlink:href="#aF"/><use transform="matrix(0.05,0,0,0.05,29,0)" xlink:href="#ax"/></g><path fill="#303030" d="M114-163C36-179 61-72 57 0H25l-1-190h30c1 12-1 29 2 39 6-27 23-49 58-41v29" id="aG"/><path fill="#303030" d="M185-189c-5-48-123-54-124 2 14 75 158 14 163 119 3 78-121 87-175 55-17-10-28-26-33-46l33-7c5 56 141 63 141-1 0-78-155-14-162-118-5-82 145-84 179-34 5 7 8 16 11 25" id="aH"/><g id="B"><use transform="matrix(0.05,0,0,0.05,0,0)" xlink:href="#at"/><use transform="matrix(0.05,0,0,0.05,3.95,0)" xlink:href="#al"/><use transform="matrix(0.05,0,0,0.05,13.949999999999998,0)" xlink:href="#ax"/><use transform="matrix(0.05,0,0,0.05,23.95,0)" xlink:href="#ax"/><use transform="matrix(0.05,0,0,0.05,33.95,0)" xlink:href="#ao"/><use transform="matrix(0.05,0,0,0.05,45.95,0)" xlink:href="#aA"/><use transform="matrix(0.05,0,0,0.05,55.95,0)" xlink:href="#aG"/><use transform="matrix(0.05,0,0,0.05,61.900000000000006,0)" xlink:href="#aH"/><use transform="matrix(0.05,0,0,0.05,73.9,0)" xlink:href="#aw"/><use transform="matrix(0.05,0,0,0.05,77.85000000000001,0)" xlink:href="#aA"/><use transform="matrix(0.05,0,0,0.05,87.85000000000001,0)" xlink:href="#au"/><use transform="matrix(0.05,0,0,0.05,96.85000000000001,0)" xlink:href="#au"/></g><path fill="#303030" d="M177-190C167-65 218 103 67 71c-23-6-38-20-44-43l32-5c15 47 100 32 89-28v-30C133-14 115 1 83 1 29 1 15-40 15-95c0-56 16-97 71-98 29-1 48 16 59 35 1-10 0-23 2-32h30zM94-22c36 0 50-32 50-73 0-42-14-75-50-75-39 0-46 34-46 75s6 73 46 73" id="aI"/><g id="C"><use transform="matrix(0.05,0,0,0.05,0,0)" xlink:href="#ap"/><use transform="matrix(0.05,0,0,0.05,12,0)" xlink:href="#an"/><use transform="matrix(0.05,0,0,0.05,22,0)" xlink:href="#ak"/><use transform="matrix(0.05,0,0,0.05,27,0)" xlink:href="#aA"/><use transform="matrix(0.05,0,0,0.05,37,0)" xlink:href="#aI"/><use transform="matrix(0.05,0,0,0.05,47,0)" xlink:href="#al"/><use transform="matrix(0.05,0,0,0.05,57,0)" xlink:href="#aG"/><use transform="matrix(0.05,0,0,0.05,62.95,0)" xlink:href="#az"/></g><g id="D"><use transform="matrix(0.05,0,0,0.05,0,0)" xlink:href="#au"/><use transform="matrix(0.05,0,0,0.05,9,0)" xlink:href="#an"/><use transform="matrix(0.05,0,0,0.05,19,0)" xlink:href="#ak"/><use transform="matrix(0.05,0,0,0.05,24,0)" xlink:href="#aA"/><use transform="matrix(0.05,0,0,0.05,34,0)" xlink:href="#aI"/><use transform="matrix(0.05,0,0,0.05,44,0)" xlink:href="#al"/><use transform="matrix(0.05,0,0,0.05,54,0)" xlink:href="#aG"/><use transform="matrix(0.05,0,0,0.05,59.95,0)" xlink:href="#az"/><use transform="matrix(0.05,0,0,0.05,63.900000000000006,0)" xlink:href="#aq"/><use transform="matrix(0.05,0,0,0.05,68.9,0)" xlink:href="#ar"/></g><path fill="#303030" d="M115-194c53 0 69 39 70 98 0 66-23 100-70 100C84 3 66-7 56-30L54 0H23l1-261h32v101c10-23 28-34 59-34zm-8 174c40 0 45-34 45-75 0-40-5-75-45-74-42 0-51 32-51 76 0 43 10 73 51 73" id="aJ"/><g id="E"><use transform="matrix(0.05,0,0,0.05,0,0)" xlink:href="#aJ"/><use transform="matrix(0.05,0,0,0.05,10,0)" xlink:href="#aA"/><use transform="matrix(0.05,0,0,0.05,20,0)" xlink:href="#av"/><use transform="matrix(0.05,0,0,0.05,29,0)" xlink:href="#au"/><use transform="matrix(0.05,0,0,0.05,38,0)" xlink:href="#aG"/><use transform="matrix(0.05,0,0,0.05,43.95,0)" xlink:href="#az"/><use transform="matrix(0.05,0,0,0.05,47.900000000000006,0)" xlink:href="#aF"/><use transform="matrix(0.05,0,0,0.05,56.900000000000006,0)" xlink:href="#aA"/><use transform="matrix(0.05,0,0,0.05,66.9,0)" xlink:href="#at"/><use transform="matrix(0.05,0,0,0.05,70.85000000000001,0)" xlink:href="#av"/><use transform="matrix(0.05,0,0,0.05,79.85000000000001,0)" xlink:href="#aA"/></g><g id="F"><use transform="matrix(0.05,0,0,0.05,0,0)" xlink:href="#aE"/><use transform="matrix(0.05,0,0,0.05,10.65,0)" xlink:href="#an"/><use transform="matrix(0.05,0,0,0.05,20.65,0)" xlink:href="#aG"/><use transform="matrix(0.05,0,0,0.05,26.599999999999994,0)" xlink:href="#aA"/></g><g id="G"><use transform="matrix(0.05,0,0,0.05,0,0)" xlink:href="#aF"/><use transform="matrix(0.05,0,0,0.05,9,0)" xlink:href="#an"/><use transform="matrix(0.05,0,0,0.05,19,0)" xlink:href="#aG"/><use transform="matrix(0.05,0,0,0.05,24.95,0)" xlink:href="#aA"/><use transform="matrix(0.05,0,0,0.05,34.95,0)" xlink:href="#aq"/><use transform="matrix(0.05,0,0,0.05,39.95,0)" xlink:href="#ar"/></g><g id="H"><use transform="matrix(0.05,0,0,0.05,0,0)" xlink:href="#ay"/><use transform="matrix(0.05,0,0,0.05,10,0)" xlink:href="#aG"/><use transform="matrix(0.05,0,0,0.05,15.949999999999998,0)" xlink:href="#az"/><use transform="matrix(0.05,0,0,0.05,19.9,0)" xlink:href="#av"/></g><path fill="#303030" d="M85-194c31 0 48 13 60 33l-1-100h32l1 261h-30c-2-10 0-23-3-31C134-8 116 4 85 4 32 4 16-35 15-94c0-66 23-100 70-100zm9 24c-40 0-46 34-46 75 0 40 6 74 45 74 42 0 51-32 51-76 0-42-9-74-50-73" id="aK"/><g id="I"><use transform="matrix(0.05,0,0,0.05,0,0)" xlink:href="#aE"/><use transform="matrix(0.05,0,0,0.05,10.65,0)" xlink:href="#an"/><use transform="matrix(0.05,0,0,0.05,20.65,0)" xlink:href="#aG"/><use transform="matrix(0.05,0,0,0.05,26.599999999999994,0)" xlink:href="#aA"/><use transform="matrix(0.05,0,0,0.05,36.599999999999994,0)" xlink:href="#aq"/><use transform="matrix(0.05,0,0,0.05,41.599999999999994,0)" xlink:href="#ax"/><use transform="matrix(0.05,0,0,0.05,51.599999999999994,0)" xlink:href="#au"/><use transform="matrix(0.05,0,0,0.05,60.599999999999994,0)" xlink:href="#at"/><use transform="matrix(0.05,0,0,0.05,64.55,0)" xlink:href="#aj"/><use transform="matrix(0.05,0,0,0.05,74.55,0)" xlink:href="#aK"/><use transform="matrix(0.05,0,0,0.05,84.55,0)" xlink:href="#aA"/><use transform="matrix(0.05,0,0,0.05,94.55,0)" xlink:href="#aG"/><use transform="matrix(0.05,0,0,0.05,100.5,0)" xlink:href="#az"/><use transform="matrix(0.05,0,0,0.05,104.45,0)" xlink:href="#ax"/><use transform="matrix(0.05,0,0,0.05,114.45,0)" xlink:href="#aI"/></g><path fill="#303030" d="M68-38c1 34 0 65-14 84H32c9-13 17-26 17-46H33v-38h35" id="aL"/><g id="J"><use transform="matrix(0.05,0,0,0.05,0,0)" xlink:href="#ao"/><use transform="matrix(0.05,0,0,0.05,12,0)" xlink:href="#ap"/><use transform="matrix(0.05,0,0,0.05,24,0)" xlink:href="#aL"/></g><g id="K"><use transform="matrix(0.05,0,0,0.05,0,0)" xlink:href="#as"/><use transform="matrix(0.05,0,0,0.05,10.950000000000001,0)" xlink:href="#ap"/></g><g id="L"><use transform="matrix(0.05,0,0,0.05,0,0)" xlink:href="#an"/><use transform="matrix(0.05,0,0,0.05,10,0)" xlink:href="#ax"/><use transform="matrix(0.05,0,0,0.05,20,0)" xlink:href="#ak"/><use transform="matrix(0.05,0,0,0.05,25,0)" xlink:href="#an"/><use transform="matrix(0.05,0,0,0.05,35,0)" xlink:href="#at"/><use transform="matrix(0.05,0,0,0.05,38.95,0)" xlink:href="#at"/></g><g id="M"><use transform="matrix(0.05,0,0,0.05,0,0)" xlink:href="#aH"/><use transform="matrix(0.05,0,0,0.05,12,0)" xlink:href="#aw"/><use transform="matrix(0.05,0,0,0.05,15.949999999999998,0)" xlink:href="#aA"/><use transform="matrix(0.05,0,0,0.05,25.950000000000003,0)" xlink:href="#au"/><use transform="matrix(0.05,0,0,0.05,34.95,0)" xlink:href="#au"/></g><g id="N"><use transform="matrix(0.05,0,0,0.05,0,0)" xlink:href="#av"/><use transform="matrix(0.05,0,0,0.05,9,0)" xlink:href="#aw"/><use transform="matrix(0.05,0,0,0.05,12.949999999999998,0)" xlink:href="#aA"/><use transform="matrix(0.05,0,0,0.05,22.95,0)" xlink:href="#au"/><use transform="matrix(0.05,0,0,0.05,31.950000000000003,0)" xlink:href="#au"/><use transform="matrix(0.05,0,0,0.05,40.95,0)" xlink:href="#aq"/><use transform="matrix(0.05,0,0,0.05,45.95,0)" xlink:href="#ar"/></g></defs></g></svg>