<svg xmlns="http://www.w3.org/2000/svg" xmlns:xlink="http://www.w3.org/1999/xlink" xmlns:lucid="lucid" width="1760" height="1360"><g transform="translate(0 0)" lucid:page-tab-id="0_0"><path d="M0 0h1760v1360H0z" fill="#ccc"/><path d="M620 583c0-1.66 1.34-3 3-3h234c1.66 0 3 1.34 3 3v54c0 1.66-1.34 3-3 3H623c-1.66 0-3-1.34-3-3z" fill="none"/><use xlink:href="#a" transform="matrix(1,0,0,1,620,580) translate(49.05 22.799999999999997)"/><use xlink:href="#b" transform="matrix(1,0,0,1,620,580) translate(84.05 22.799999999999997)"/><use xlink:href="#c" transform="matrix(1,0,0,1,620,580) translate(139.05 22.799999999999997)"/><use xlink:href="#d" transform="matrix(1,0,0,1,620,580) translate(148 22.799999999999997)"/><use xlink:href="#e" transform="matrix(1,0,0,1,620,580) translate(120 44.4)"/><path d="M260 408c0-1.66 1.34-3 3-3h194c1.66 0 3 1.34 3 3v130c0 1.66-1.34 3-3 3H263c-1.66 0-3-1.34-3-3z" fill="#e5e5e5"/><path d="M260 408c0-1.66 1.34-3 3-3h194c1.66 0 3 1.34 3 3v130c0 1.66-1.34 3-3 3H263c-1.66 0-3-1.34-3-3zM260 445h200M320 445v96" stroke="#b2b2b2" stroke-width="4" fill="none"/><use xlink:href="#f" transform="matrix(1,0,0,1,270,405) translate(56.525 23.6)"/><use xlink:href="#g" transform="matrix(1,0,0,1,265,447.5) translate(13 17.1)"/><use xlink:href="#h" transform="matrix(1,0,0,1,325,447.5) translate(25.025 17.1)"/><use xlink:href="#i" transform="matrix(1,0,0,1,265,479.5) translate(13.524999999999999 17.1)"/><use xlink:href="#j" transform="matrix(1,0,0,1,325,479.5) translate(24.549999999999997 17.1)"/><use xlink:href="#k" transform="matrix(1,0,0,1,325,511.5) translate(29.025 17.1)"/><path d="M260 103c0-1.66 1.34-3 3-3h194c1.66 0 3 1.34 3 3v162c0 1.66-1.34 3-3 3H263c-1.66 0-3-1.34-3-3z" fill="#e5e5e5"/><path d="M260 103c0-1.66 1.34-3 3-3h194c1.66 0 3 1.34 3 3v162c0 1.66-1.34 3-3 3H263c-1.66 0-3-1.34-3-3zM260 140h200M320 140v128" stroke="#b2b2b2" stroke-width="4" fill="none"/><use xlink:href="#l" transform="matrix(1,0,0,1,270,100) translate(54.025 23.6)"/><use xlink:href="#g" transform="matrix(1,0,0,1,265,142.5) translate(13 17.1)"/><use xlink:href="#m" transform="matrix(1,0,0,1,325,142.5) translate(23.074999999999996 17.1)"/><use xlink:href="#n" transform="matrix(1,0,0,1,325,174.5) translate(0 17.1)"/><use xlink:href="#o" transform="matrix(1,0,0,1,325,174.5) translate(25 17.1)"/><use xlink:href="#p" transform="matrix(1,0,0,1,325,206.5) translate(59 17.1)"/><use xlink:href="#q" transform="matrix(1,0,0,1,325,238.5) translate(59 17.1)"/><path d="M640 403c0-1.66 1.34-3 3-3h194c1.66 0 3 1.34 3 3v140c0 1.66-1.34 3-3 3H643c-1.66 0-3-1.34-3-3z" fill="#e5e5e5"/><path d="M640 403c0-1.66 1.34-3 3-3h194c1.66 0 3 1.34 3 3v140c0 1.66-1.34 3-3 3H643c-1.66 0-3-1.34-3-3zM640 440h200M700 440v106" stroke="#b2b2b2" stroke-width="4" fill="none"/><use xlink:href="#r" transform="matrix(1,0,0,1,650,400) translate(56.05 23.6)"/><use xlink:href="#s" transform="matrix(1,0,0,1,645,442.5) translate(10.5 16.799999999999997)"/><use xlink:href="#t" transform="matrix(1,0,0,1,645,442.5) translate(13.524999999999999 38.4)"/><use xlink:href="#u" transform="matrix(1,0,0,1,705,442.5) translate(23.549999999999997 27.6)"/><use xlink:href="#s" transform="matrix(1,0,0,1,645,495.5) translate(10.5 16.799999999999997)"/><use xlink:href="#t" transform="matrix(1,0,0,1,645,495.5) translate(13.524999999999999 38.4)"/><use xlink:href="#v" transform="matrix(1,0,0,1,705,495.5) translate(41 27.6)"/><path d="M1000 403c0-1.66 1.34-3 3-3h194c1.66 0 3 1.34 3 3v130c0 1.66-1.34 3-3 3h-194c-1.66 0-3-1.34-3-3z" fill="#e5e5e5"/><path d="M1000 403c0-1.66 1.34-3 3-3h194c1.66 0 3 1.34 3 3v130c0 1.66-1.34 3-3 3h-194c-1.66 0-3-1.34-3-3zM1000 440h200M1060 440v96" stroke="#b2b2b2" stroke-width="4" fill="none"/><use xlink:href="#w" transform="matrix(1,0,0,1,1010,400) translate(72.675 23.6)"/><use xlink:href="#g" transform="matrix(1,0,0,1,1005,442.5) translate(13 17.1)"/><use xlink:href="#v" transform="matrix(1,0,0,1,1065,442.5) translate(41 17.1)"/><use xlink:href="#x" transform="matrix(1,0,0,1,1065,474.5) translate(45.5 17.1)"/><use xlink:href="#y" transform="matrix(1,0,0,1,1065,506.5) translate(12.074999999999996 17.1)"/><path d="M720 935c0-1.66 1.34-3 3-3h194c1.66 0 3 1.34 3 3v130c0 1.66-1.34 3-3 3H723c-1.66 0-3-1.34-3-3z" fill="#e5e5e5"/><path d="M720 935c0-1.66 1.34-3 3-3h194c1.66 0 3 1.34 3 3v130c0 1.66-1.34 3-3 3H723c-1.66 0-3-1.34-3-3zM720 972h200M780 972v96" stroke="#b2b2b2" stroke-width="4" fill="none"/><use xlink:href="#z" transform="matrix(1,0,0,1,730,932) translate(56.55 23.6)"/><use xlink:href="#g" transform="matrix(1,0,0,1,725,974.5) translate(13 17.1)"/><use xlink:href="#A" transform="matrix(1,0,0,1,785,974.5) translate(24.074999999999996 17.1)"/><use xlink:href="#x" transform="matrix(1,0,0,1,785,1006.5) translate(45.5 17.1)"/><use xlink:href="#B" transform="matrix(1,0,0,1,785,1038.5) translate(20.074999999999996 17.1)"/><path d="M260 903c0-1.66 1.34-3 3-3h194c1.66 0 3 1.34 3 3v194c0 1.66-1.34 3-3 3H263c-1.66 0-3-1.34-3-3z" fill="#e5e5e5"/><path d="M260 903c0-1.66 1.34-3 3-3h194c1.66 0 3 1.34 3 3v194c0 1.66-1.34 3-3 3H263c-1.66 0-3-1.34-3-3zM260 940h200M320 940v160" stroke="#b2b2b2" stroke-width="4" fill="none"/><use xlink:href="#C" transform="matrix(1,0,0,1,270,900) translate(71.7 23.6)"/><use xlink:href="#g" transform="matrix(1,0,0,1,265,942.5) translate(13 17.1)"/><use xlink:href="#D" transform="matrix(1,0,0,1,325,942.5) translate(38.55 17.1)"/><use xlink:href="#i" transform="matrix(1,0,0,1,265,974.5) translate(13.524999999999999 17.1)"/><use xlink:href="#A" transform="matrix(1,0,0,1,325,974.5) translate(24.074999999999996 17.1)"/><use xlink:href="#E" transform="matrix(1,0,0,1,325,1006.5) translate(50.55 17.1)"/><use xlink:href="#x" transform="matrix(1,0,0,1,325,1038.5) translate(45.5 17.1)"/><use xlink:href="#B" transform="matrix(1,0,0,1,325,1070.5) translate(20.074999999999996 17.1)"/><path d="M260 493h-37c-1.66 0-3-1.34-3-3V159c0-1.66 1.34-3 3-3h37" stroke="#303030" stroke-width="2" fill="none"/><path d="M260 483v1.12L242.24 493l17.76 8.88V503l-.45.9-21.8-10.9 21.8-10.9z" fill="#303030"/><path fill="#fff"/><path d="M241 503h-2v-20h2z" fill="#303030"/><path fill="#fff"/><path d="M251 166h-2v-20h2z" fill="#303030"/><path fill="#fff"/><path d="M241 166h-2v-20h2z" fill="#303030"/><path d="M460 461h86.75c1.52 0 2.75 1.23 2.75 2.75s1.23 2.75 2.75 2.75H639" stroke="#303030" stroke-width="2" fill="none"/><path fill="#fff"/><path d="M471 471h-2v-20h2z" fill="#303030"/><path fill="#fff"/><path d="M481 471h-2v-20h2zM639.45 457.4l-18.2 9.1 18.2 9.1-.9 1.8-21.8-10.9 21.8-10.9z" fill="#303030"/><path d="M619 466.5l-.5 3.16-1.43 2.75-2.16 2.17-2.74 1.42-3.16.5-3.16-.5-2.75-1.43-2.17-2.16-1.42-2.74-.5-3.16.5-3.16 1.43-2.75 2.16-2.17 2.74-1.42 3.16-.5 3.16.5 2.75 1.43 2.17 2.16 1.42 2.74.5 3.16z" fill="#fff"/><path d="M612.48 456.05l3.02 1.56 2.4 2.4 1.55 3.02.54 3.32-1 .16 1 .16-.55 3.32-1.56 3.02-2.4 2.4-3.02 1.55-3.48.56-3.48-.55-3.02-1.56-2.4-2.4-1.55-3.02-.56-3.48.55-3.48 1.56-3.02 2.4-2.4 3.02-1.55 3.48-.56zm-6.32 1.92l-2.47 1.28-1.95 1.94-1.28 2.46-.46 2.84.47 2.84 1.28 2.47 1.94 1.95 2.46 1.28 2.84.46 2.84-.47 2.47-1.28 1.95-1.94 1.28-2.46.46-2.84-.47-2.84-1.28-2.47-1.94-1.95-2.46-1.28-2.84-.46z" fill="#303030"/><path d="M1000 456h-77c-1.66 0-3 1.34-3 3v57.5c0 1.66-1.34 3-3 3h-77" stroke="#303030" stroke-width="2" fill="none"/><path fill="#fff"/><path d="M991 466h-2v-20h2z" fill="#303030"/><path fill="#fff"/><path d="M981 466h-2v-20h2zM862.24 519.5l-21.8 10.9-.44-.9v-1.12l17.76-8.88-17.76-8.88v-1.12l.45-.9z" fill="#303030"/><path d="M880 519.5l-.5 3.16-1.43 2.75-2.16 2.17-2.74 1.42-3.16.5-3.16-.5-2.75-1.43-2.17-2.16-1.42-2.74-.5-3.16.5-3.16 1.43-2.75 2.16-2.17 2.74-1.42 3.16-.5 3.16.5 2.75 1.43 2.17 2.16 1.42 2.74.5 3.16z" fill="#fff"/><path d="M873.48 509.05l3.02 1.56 2.4 2.4 1.55 3.02.54 3.32-1 .16 1 .16-.55 3.32-1.56 3.02-2.4 2.4-3.02 1.55-3.48.56-3.48-.55-3.02-1.56-2.4-2.4-1.55-3.02-.56-3.48.55-3.48 1.56-3.02 2.4-2.4 3.02-1.55 3.48-.56zm-6.32 1.92l-2.47 1.28-1.95 1.94-1.28 2.46-.46 2.84.47 2.84 1.28 2.47 1.94 1.95 2.46 1.28 2.84.46 2.84-.47 2.47-1.28 1.95-1.94 1.28-2.46.46-2.84-.47-2.84-1.28-2.47-1.94-1.95-2.46-1.28-2.84-.46z" fill="#303030"/><path d="M260 663c0-1.66 1.34-3 3-3h194c1.66 0 3 1.34 3 3v140c0 1.66-1.34 3-3 3H263c-1.66 0-3-1.34-3-3z" fill="#e5e5e5"/><path d="M260 663c0-1.66 1.34-3 3-3h194c1.66 0 3 1.34 3 3v140c0 1.66-1.34 3-3 3H263c-1.66 0-3-1.34-3-3zM260 700h200M320 700v106" stroke="#b2b2b2" stroke-width="4" fill="none"/><use xlink:href="#F" transform="matrix(1,0,0,1,270,660) translate(28.599999999999994 23.6)"/><use xlink:href="#s" transform="matrix(1,0,0,1,265,702.5) translate(10.5 16.799999999999997)"/><use xlink:href="#t" transform="matrix(1,0,0,1,265,702.5) translate(13.524999999999999 38.4)"/><use xlink:href="#u" transform="matrix(1,0,0,1,325,702.5) translate(23.549999999999997 27.6)"/><use xlink:href="#s" transform="matrix(1,0,0,1,265,755.5) translate(10.5 16.799999999999997)"/><use xlink:href="#t" transform="matrix(1,0,0,1,265,755.5) translate(13.524999999999999 38.4)"/><use xlink:href="#D" transform="matrix(1,0,0,1,325,755.5) translate(38.55 27.6)"/><path d="M260 461h-67c-1.66 0-3 1.34-3 3v259.5c0 1.66 1.34 3 3 3h67" stroke="#303030" stroke-width="2" fill="none"/><path fill="#fff"/><path d="M251 471h-2v-20h2z" fill="#303030"/><path fill="#fff"/><path d="M241 471h-2v-20h2zM260 716.5v1.12l-17.76 8.88 17.76 8.88v1.12l-.45.9-21.8-10.9 21.8-10.9z" fill="#303030"/><path d="M240 726.5l-.5 3.16-1.43 2.75-2.16 2.17-2.74 1.42-3.16.5-3.16-.5-2.75-1.43-2.17-2.16-1.42-2.74-.5-3.16.5-3.16 1.43-2.75 2.16-2.17 2.74-1.42 3.16-.5 3.16.5 2.75 1.43 2.17 2.16 1.42 2.74.5 3.16z" fill="#fff"/><path d="M233.48 716.05l3.02 1.56 2.4 2.4 1.55 3.02.54 3.32-1 .16 1 .16-.55 3.32-1.56 3.02-2.4 2.4-3.02 1.55-3.48.56-3.48-.55-3.02-1.56-2.4-2.4-1.55-3.02-.56-3.48.55-3.48 1.56-3.02 2.4-2.4 3.02-1.55 3.48-.56zm-6.32 1.92l-2.47 1.28-1.95 1.94-1.28 2.46-.46 2.84.47 2.84 1.28 2.47 1.94 1.95 2.46 1.28 2.84.46 2.84-.47 2.47-1.28 1.95-1.94 1.28-2.46.46-2.84-.47-2.84-1.28-2.47-1.94-1.95-2.46-1.28-2.84-.46z" fill="#303030"/><path d="M260 956h-37c-1.66 0-3-1.34-3-3V782.5c0-1.66 1.34-3 3-3h37" stroke="#303030" stroke-width="2" fill="none"/><path fill="#fff"/><path d="M251 966h-2v-20h2z" fill="#303030"/><path fill="#fff"/><path d="M241 966h-2v-20h2zM260 769.5v1.12l-17.76 8.88 17.76 8.88v1.12l-.45.9-21.8-10.9 21.8-10.9z" fill="#303030"/><path d="M240 779.5l-.5 3.16-1.43 2.75-2.16 2.17-2.74 1.42-3.16.5-3.16-.5-2.75-1.43-2.17-2.16-1.42-2.74-.5-3.16.5-3.16 1.43-2.75 2.16-2.17 2.74-1.42 3.16-.5 3.16.5 2.75 1.43 2.17 2.16 1.42 2.74.5 3.16z" fill="#fff"/><path d="M233.48 769.05l3.02 1.56 2.4 2.4 1.55 3.02.54 3.32-1 .16 1 .16-.55 3.32-1.56 3.02-2.4 2.4-3.02 1.55-3.48.56-3.48-.55-3.02-1.56-2.4-2.4-1.55-3.02-.56-3.48.55-3.48 1.56-3.02 2.4-2.4 3.02-1.55 3.48-.56zm-6.32 1.92l-2.47 1.28-1.95 1.94-1.28 2.46-.46 2.84.47 2.84 1.28 2.47 1.94 1.95 2.46 1.28 2.84.46 2.84-.47 2.47-1.28 1.95-1.94 1.28-2.46.46-2.84-.47-2.84-1.28-2.47-1.94-1.95-2.46-1.28-2.84-.46z" fill="#303030"/><path d="M719 988H460" stroke="#303030" stroke-width="2" fill="none"/><path fill="#fff"/><path d="M710 998h-2v-20h2z" fill="#303030"/><path fill="#fff"/><path d="M700 998h-2v-20h2zM482.24 988l-21.8 10.9-.44-.9v-1.12l17.76-8.88-17.76-8.88V978l.45-.9z" fill="#303030"/><path d="M500 988l-.5 3.16-1.43 2.75-2.16 2.17-2.74 1.42-3.16.5-3.16-.5-2.75-1.43-2.17-2.16-1.42-2.74-.5-3.16.5-3.16 1.43-2.75 2.16-2.17 2.74-1.42 3.16-.5 3.16.5 2.75 1.43 2.17 2.16 1.42 2.74.5 3.16z" fill="#fff"/><path d="M493.48 977.55l3.02 1.56 2.4 2.4 1.55 3.02.54 3.32-1 .16 1 .16-.55 3.32-1.56 3.02-2.4 2.4-3.02 1.55-3.48.56-3.48-.55-3.02-1.56-2.4-2.4-1.55-3.02L479 988l.55-3.48 1.56-3.02 2.4-2.4 3.02-1.55L490 977zm-6.32 1.92l-2.47 1.28-1.95 1.94-1.28 2.46L481 988l.47 2.84 1.28 2.47 1.94 1.95 2.46 1.28 2.84.46 2.84-.47 2.47-1.28 1.95-1.94 1.28-2.46.46-2.84-.47-2.84-1.28-2.47-1.94-1.95-2.46-1.28L490 979z" fill="#303030"/><defs><path fill="#303030" d="M30 0v-248h33v221h125V0H30" id="G"/><path fill="#303030" d="M141-36C126-15 110 5 73 4 37 3 15-17 15-53c-1-64 63-63 125-63 3-35-9-54-41-54-24 1-41 7-42 31l-33-3c5-37 33-52 76-52 45 0 72 20 72 64v82c-1 20 7 32 28 27v20c-31 9-61-2-59-35zM48-53c0 20 12 33 32 33 41-3 63-29 60-74-43 2-92-5-92 41" id="H"/><path fill="#303030" d="M177-190C167-65 218 103 67 71c-23-6-38-20-44-43l32-5c15 47 100 32 89-28v-30C133-14 115 1 83 1 29 1 15-40 15-95c0-56 16-97 71-98 29-1 48 16 59 35 1-10 0-23 2-32h30zM94-22c36 0 50-32 50-73 0-42-14-75-50-75-39 0-46 34-46 75s6 73 46 73" id="I"/><g id="a"><use transform="matrix(0.05,0,0,0.05,0,0)" xlink:href="#G"/><use transform="matrix(0.05,0,0,0.05,10,0)" xlink:href="#H"/><use transform="matrix(0.05,0,0,0.05,20,0)" xlink:href="#I"/></g><path fill="#303030" d="M85-194c31 0 48 13 60 33l-1-100h32l1 261h-30c-2-10 0-23-3-31C134-8 116 4 85 4 32 4 16-35 15-94c0-66 23-100 70-100zm9 24c-40 0-46 34-46 75 0 40 6 74 45 74 42 0 51-32 51-76 0-42-9-74-50-73" id="J"/><path fill="#303030" d="M100-194c63 0 86 42 84 106H49c0 40 14 67 53 68 26 1 43-12 49-29l28 8c-11 28-37 45-77 45C44 4 14-33 15-96c1-61 26-98 85-98zm52 81c6-60-76-77-97-28-3 7-6 17-6 28h103" id="K"/><path fill="#303030" d="M117-194c89-4 53 116 60 194h-32v-121c0-31-8-49-39-48C34-167 62-67 57 0H25l-1-190h30c1 10-1 24 2 32 11-22 29-35 61-36" id="L"/><g id="b"><use transform="matrix(0.05,0,0,0.05,0,0)" xlink:href="#J"/><use transform="matrix(0.05,0,0,0.05,10,0)" xlink:href="#K"/><use transform="matrix(0.05,0,0,0.05,20,0)" xlink:href="#L"/><use transform="matrix(0.05,0,0,0.05,30,0)" xlink:href="#L"/><use transform="matrix(0.05,0,0,0.05,40,0)" xlink:href="#K"/></g><path fill="#303030" d="M24-231v-30h32v30H24zM24 0v-190h32V0H24" id="M"/><use transform="matrix(0.05,0,0,0.05,0,0)" xlink:href="#M" id="c"/><path fill="#303030" d="M108 0H70L1-190h34L89-25l56-165h34" id="N"/><path fill="#303030" d="M100-194c62-1 85 37 85 99 1 63-27 99-86 99S16-35 15-95c0-66 28-99 85-99zM99-20c44 1 53-31 53-75 0-43-8-75-51-75s-53 32-53 75 10 74 51 75" id="O"/><g id="d"><use transform="matrix(0.05,0,0,0.05,0,0)" xlink:href="#N"/><use transform="matrix(0.05,0,0,0.05,9,0)" xlink:href="#M"/><use transform="matrix(0.05,0,0,0.05,12.949999999999998,0)" xlink:href="#J"/><use transform="matrix(0.05,0,0,0.05,22.95,0)" xlink:href="#K"/><use transform="matrix(0.05,0,0,0.05,32.95,0)" xlink:href="#O"/></g><path fill="#303030" d="M205 0l-28-72H64L36 0H1l101-248h38L239 0h-34zm-38-99l-47-123c-12 45-31 82-46 123h93" id="P"/><path fill="#303030" d="M84 4C-5 8 30-112 23-190h32v120c0 31 7 50 39 49 72-2 45-101 50-169h31l1 190h-30c-1-10 1-25-2-33-11 22-28 36-60 37" id="Q"/><path fill="#303030" d="M59-47c-2 24 18 29 38 22v24C64 9 27 4 27-40v-127H5v-23h24l9-43h21v43h35v23H59v120" id="R"/><path fill="#303030" d="M210-169c-67 3-38 105-44 169h-31v-121c0-29-5-50-35-48C34-165 62-65 56 0H25l-1-190h30c1 10-1 24 2 32 10-44 99-50 107 0 11-21 27-35 58-36 85-2 47 119 55 194h-31v-121c0-29-5-49-35-48" id="S"/><g id="f"><use transform="matrix(0.05,0,0,0.05,0,0)" xlink:href="#P"/><use transform="matrix(0.05,0,0,0.05,12,0)" xlink:href="#Q"/><use transform="matrix(0.05,0,0,0.05,22,0)" xlink:href="#R"/><use transform="matrix(0.05,0,0,0.05,27,0)" xlink:href="#O"/><use transform="matrix(0.05,0,0,0.05,37,0)" xlink:href="#S"/><use transform="matrix(0.05,0,0,0.05,51.95,0)" xlink:href="#H"/><use transform="matrix(0.05,0,0,0.05,61.95,0)" xlink:href="#R"/></g><path fill="#303030" d="M30-248c87 1 191-15 191 75 0 78-77 80-158 76V0H30v-248zm33 125c57 0 124 11 124-50 0-59-68-47-124-48v98" id="T"/><path fill="#303030" d="M194 0L95-120 63-95V0H30v-248h33v124l119-124h40L117-140 236 0h-42" id="U"/><g id="g"><use transform="matrix(0.05,0,0,0.05,0,0)" xlink:href="#T"/><use transform="matrix(0.05,0,0,0.05,12,0)" xlink:href="#U"/></g><path fill="#303030" d="M33 0v-248h34V0H33" id="V"/><g id="h"><use transform="matrix(0.05,0,0,0.05,0,0)" xlink:href="#H"/><use transform="matrix(0.05,0,0,0.05,10,0)" xlink:href="#Q"/><use transform="matrix(0.05,0,0,0.05,20,0)" xlink:href="#R"/><use transform="matrix(0.05,0,0,0.05,25,0)" xlink:href="#O"/><use transform="matrix(0.05,0,0,0.05,35,0)" xlink:href="#S"/><use transform="matrix(0.05,0,0,0.05,49.95,0)" xlink:href="#H"/><use transform="matrix(0.05,0,0,0.05,59.95,0)" xlink:href="#R"/><use transform="matrix(0.05,0,0,0.05,64.95,0)" xlink:href="#V"/><use transform="matrix(0.05,0,0,0.05,69.95,0)" xlink:href="#J"/></g><path fill="#303030" d="M63-220v92h138v28H63V0H30v-248h175v28H63" id="W"/><g id="i"><use transform="matrix(0.05,0,0,0.05,0,0)" xlink:href="#W"/><use transform="matrix(0.05,0,0,0.05,10.950000000000001,0)" xlink:href="#U"/></g><path fill="#303030" d="M24 0v-261h32V0H24" id="X"/><path fill="#303030" d="M143 0L79-87 56-68V0H24v-261h32v163l83-92h37l-77 82L181 0h-38" id="Y"/><path fill="#303030" d="M135-143c-3-34-86-38-87 0 15 53 115 12 119 90S17 21 10-45l28-5c4 36 97 45 98 0-10-56-113-15-118-90-4-57 82-63 122-42 12 7 21 19 24 35" id="Z"/><path fill="#303030" d="M24-231v-30h32v30H24zM-9 49c24 4 33-6 33-30v-209h32V24c2 40-23 58-65 49V49" id="aa"/><g id="j"><use transform="matrix(0.05,0,0,0.05,0,0)" xlink:href="#X"/><use transform="matrix(0.05,0,0,0.05,3.95,0)" xlink:href="#O"/><use transform="matrix(0.05,0,0,0.05,13.949999999999998,0)" xlink:href="#Y"/><use transform="matrix(0.05,0,0,0.05,22.95,0)" xlink:href="#H"/><use transform="matrix(0.05,0,0,0.05,32.95,0)" xlink:href="#Z"/><use transform="matrix(0.05,0,0,0.05,41.95,0)" xlink:href="#aa"/><use transform="matrix(0.05,0,0,0.05,45.900000000000006,0)" xlink:href="#O"/><use transform="matrix(0.05,0,0,0.05,55.900000000000006,0)" xlink:href="#L"/><use transform="matrix(0.05,0,0,0.05,65.9,0)" xlink:href="#V"/><use transform="matrix(0.05,0,0,0.05,70.9,0)" xlink:href="#J"/></g><path fill="#303030" d="M115-194c55 1 70 41 70 98S169 2 115 4C84 4 66-9 55-30l1 105H24l-1-265h31l2 30c10-21 28-34 59-34zm-8 174c40 0 45-34 45-75s-6-73-45-74c-42 0-51 32-51 76 0 43 10 73 51 73" id="ab"/><g id="k"><use transform="matrix(0.05,0,0,0.05,0,0)" xlink:href="#Y"/><use transform="matrix(0.05,0,0,0.05,9,0)" xlink:href="#H"/><use transform="matrix(0.05,0,0,0.05,19,0)" xlink:href="#ab"/><use transform="matrix(0.05,0,0,0.05,29,0)" xlink:href="#H"/><use transform="matrix(0.05,0,0,0.05,39,0)" xlink:href="#Z"/><use transform="matrix(0.05,0,0,0.05,48,0)" xlink:href="#M"/><use transform="matrix(0.05,0,0,0.05,51.95,0)" xlink:href="#R"/><use transform="matrix(0.05,0,0,0.05,56.95,0)" xlink:href="#K"/><use transform="matrix(0.05,0,0,0.05,66.95,0)" xlink:href="#R"/></g><g id="l"><use transform="matrix(0.05,0,0,0.05,0,0)" xlink:href="#G"/><use transform="matrix(0.05,0,0,0.05,10,0)" xlink:href="#O"/><use transform="matrix(0.05,0,0,0.05,20,0)" xlink:href="#Y"/><use transform="matrix(0.05,0,0,0.05,29,0)" xlink:href="#H"/><use transform="matrix(0.05,0,0,0.05,39,0)" xlink:href="#Z"/><use transform="matrix(0.05,0,0,0.05,48,0)" xlink:href="#aa"/><use transform="matrix(0.05,0,0,0.05,51.95,0)" xlink:href="#O"/><use transform="matrix(0.05,0,0,0.05,61.95,0)" xlink:href="#L"/></g><path fill="#303030" d="M30-248c118-7 216 8 213 122C240-48 200 0 122 0H30v-248zM63-27c89 8 146-16 146-99s-60-101-146-95v194" id="ac"/><g id="m"><use transform="matrix(0.05,0,0,0.05,0,0)" xlink:href="#X"/><use transform="matrix(0.05,0,0,0.05,3.95,0)" xlink:href="#O"/><use transform="matrix(0.05,0,0,0.05,13.949999999999998,0)" xlink:href="#Y"/><use transform="matrix(0.05,0,0,0.05,22.95,0)" xlink:href="#H"/><use transform="matrix(0.05,0,0,0.05,32.95,0)" xlink:href="#Z"/><use transform="matrix(0.05,0,0,0.05,41.95,0)" xlink:href="#aa"/><use transform="matrix(0.05,0,0,0.05,45.900000000000006,0)" xlink:href="#O"/><use transform="matrix(0.05,0,0,0.05,55.900000000000006,0)" xlink:href="#L"/><use transform="matrix(0.05,0,0,0.05,65.9,0)" xlink:href="#V"/><use transform="matrix(0.05,0,0,0.05,70.9,0)" xlink:href="#ac"/></g><g id="o"><use transform="matrix(0.05,0,0,0.05,0,0)" xlink:href="#L"/><use transform="matrix(0.05,0,0,0.05,10,0)" xlink:href="#H"/><use transform="matrix(0.05,0,0,0.05,20,0)" xlink:href="#S"/><use transform="matrix(0.05,0,0,0.05,34.95,0)" xlink:href="#K"/></g><path fill="#303030" d="M195 0l-74-108L45 0H8l94-129-87-119h37l69 98 67-98h37l-84 118L233 0h-38" id="ad"/><use transform="matrix(0.05,0,0,0.05,0,0)" xlink:href="#ad" id="p"/><path fill="#303030" d="M137-103V0h-34v-103L8-248h37l75 118 75-118h37" id="ae"/><use transform="matrix(0.05,0,0,0.05,0,0)" xlink:href="#ae" id="q"/><path fill="#303030" d="M185-189c-5-48-123-54-124 2 14 75 158 14 163 119 3 78-121 87-175 55-17-10-28-26-33-46l33-7c5 56 141 63 141-1 0-78-155-14-162-118-5-82 145-84 179-34 5 7 8 16 11 25" id="af"/><g id="r"><use transform="matrix(0.05,0,0,0.05,0,0)" xlink:href="#af"/><use transform="matrix(0.05,0,0,0.05,12,0)" xlink:href="#aa"/><use transform="matrix(0.05,0,0,0.05,15.949999999999998,0)" xlink:href="#K"/><use transform="matrix(0.05,0,0,0.05,25.950000000000003,0)" xlink:href="#Y"/><use transform="matrix(0.05,0,0,0.05,34.95,0)" xlink:href="#Y"/><use transform="matrix(0.05,0,0,0.05,43.95,0)" xlink:href="#M"/><use transform="matrix(0.05,0,0,0.05,47.900000000000006,0)" xlink:href="#L"/><use transform="matrix(0.05,0,0,0.05,57.900000000000006,0)" xlink:href="#I"/></g><path fill="#303030" d="M68-38c1 34 0 65-14 84H32c9-13 17-26 17-46H33v-38h35" id="ag"/><g id="s"><use transform="matrix(0.05,0,0,0.05,0,0)" xlink:href="#T"/><use transform="matrix(0.05,0,0,0.05,12,0)" xlink:href="#U"/><use transform="matrix(0.05,0,0,0.05,24,0)" xlink:href="#ag"/></g><g id="t"><use transform="matrix(0.05,0,0,0.05,0,0)" xlink:href="#W"/><use transform="matrix(0.05,0,0,0.05,10.950000000000001,0)" xlink:href="#U"/></g><g id="u"><use transform="matrix(0.05,0,0,0.05,0,0)" xlink:href="#H"/><use transform="matrix(0.05,0,0,0.05,10,0)" xlink:href="#Q"/><use transform="matrix(0.05,0,0,0.05,20,0)" xlink:href="#R"/><use transform="matrix(0.05,0,0,0.05,25,0)" xlink:href="#O"/><use transform="matrix(0.05,0,0,0.05,35,0)" xlink:href="#S"/><use transform="matrix(0.05,0,0,0.05,49.95,0)" xlink:href="#H"/><use transform="matrix(0.05,0,0,0.05,59.95,0)" xlink:href="#R"/><use transform="matrix(0.05,0,0,0.05,64.95,0)" xlink:href="#V"/><use transform="matrix(0.05,0,0,0.05,69.95,0)" xlink:href="#ac"/></g><g id="v"><use transform="matrix(0.05,0,0,0.05,0,0)" xlink:href="#N"/><use transform="matrix(0.05,0,0,0.05,9,0)" xlink:href="#H"/><use transform="matrix(0.05,0,0,0.05,19,0)" xlink:href="#Y"/><use transform="matrix(0.05,0,0,0.05,28,0)" xlink:href="#R"/><use transform="matrix(0.05,0,0,0.05,33,0)" xlink:href="#V"/><use transform="matrix(0.05,0,0,0.05,38,0)" xlink:href="#J"/></g><path fill="#303030" d="M137 0h-34L2-248h35l83 218 83-218h36" id="ah"/><g id="w"><use transform="matrix(0.05,0,0,0.05,0,0)" xlink:href="#ah"/><use transform="matrix(0.05,0,0,0.05,10.65,0)" xlink:href="#H"/><use transform="matrix(0.05,0,0,0.05,20.65,0)" xlink:href="#Y"/><use transform="matrix(0.05,0,0,0.05,29.649999999999995,0)" xlink:href="#R"/></g><g id="x"><use transform="matrix(0.05,0,0,0.05,0,0)" xlink:href="#L"/><use transform="matrix(0.05,0,0,0.05,10,0)" xlink:href="#H"/><use transform="matrix(0.05,0,0,0.05,20,0)" xlink:href="#N"/><use transform="matrix(0.05,0,0,0.05,29,0)" xlink:href="#L"/></g><path fill="#303030" d="M114-163C36-179 61-72 57 0H25l-1-190h30c1 12-1 29 2 39 6-27 23-49 58-41v29" id="ai"/><g id="y"><use transform="matrix(0.05,0,0,0.05,0,0)" xlink:href="#X"/><use transform="matrix(0.05,0,0,0.05,3.95,0)" xlink:href="#O"/><use transform="matrix(0.05,0,0,0.05,13.949999999999998,0)" xlink:href="#L"/><use transform="matrix(0.05,0,0,0.05,23.95,0)" xlink:href="#L"/><use transform="matrix(0.05,0,0,0.05,33.95,0)" xlink:href="#T"/><use transform="matrix(0.05,0,0,0.05,45.95,0)" xlink:href="#K"/><use transform="matrix(0.05,0,0,0.05,55.95,0)" xlink:href="#ai"/><use transform="matrix(0.05,0,0,0.05,61.900000000000006,0)" xlink:href="#af"/><use transform="matrix(0.05,0,0,0.05,73.9,0)" xlink:href="#aa"/><use transform="matrix(0.05,0,0,0.05,77.85000000000001,0)" xlink:href="#K"/><use transform="matrix(0.05,0,0,0.05,87.85000000000001,0)" xlink:href="#Y"/><use transform="matrix(0.05,0,0,0.05,96.85000000000001,0)" xlink:href="#Y"/></g><g id="z"><use transform="matrix(0.05,0,0,0.05,0,0)" xlink:href="#U"/><use transform="matrix(0.05,0,0,0.05,12,0)" xlink:href="#H"/><use transform="matrix(0.05,0,0,0.05,22,0)" xlink:href="#R"/><use transform="matrix(0.05,0,0,0.05,27,0)" xlink:href="#K"/><use transform="matrix(0.05,0,0,0.05,37,0)" xlink:href="#I"/><use transform="matrix(0.05,0,0,0.05,47,0)" xlink:href="#O"/><use transform="matrix(0.05,0,0,0.05,57,0)" xlink:href="#ai"/><use transform="matrix(0.05,0,0,0.05,62.95,0)" xlink:href="#M"/></g><g id="A"><use transform="matrix(0.05,0,0,0.05,0,0)" xlink:href="#Y"/><use transform="matrix(0.05,0,0,0.05,9,0)" xlink:href="#H"/><use transform="matrix(0.05,0,0,0.05,19,0)" xlink:href="#R"/><use transform="matrix(0.05,0,0,0.05,24,0)" xlink:href="#K"/><use transform="matrix(0.05,0,0,0.05,34,0)" xlink:href="#I"/><use transform="matrix(0.05,0,0,0.05,44,0)" xlink:href="#O"/><use transform="matrix(0.05,0,0,0.05,54,0)" xlink:href="#ai"/><use transform="matrix(0.05,0,0,0.05,59.95,0)" xlink:href="#M"/><use transform="matrix(0.05,0,0,0.05,63.900000000000006,0)" xlink:href="#V"/><use transform="matrix(0.05,0,0,0.05,68.9,0)" xlink:href="#ac"/></g><path fill="#303030" d="M115-194c53 0 69 39 70 98 0 66-23 100-70 100C84 3 66-7 56-30L54 0H23l1-261h32v101c10-23 28-34 59-34zm-8 174c40 0 45-34 45-75 0-40-5-75-45-74-42 0-51 32-51 76 0 43 10 73 51 73" id="aj"/><g id="B"><use transform="matrix(0.05,0,0,0.05,0,0)" xlink:href="#aj"/><use transform="matrix(0.05,0,0,0.05,10,0)" xlink:href="#K"/><use transform="matrix(0.05,0,0,0.05,20,0)" xlink:href="#Z"/><use transform="matrix(0.05,0,0,0.05,29,0)" xlink:href="#Y"/><use transform="matrix(0.05,0,0,0.05,38,0)" xlink:href="#ai"/><use transform="matrix(0.05,0,0,0.05,43.95,0)" xlink:href="#M"/><use transform="matrix(0.05,0,0,0.05,47.900000000000006,0)" xlink:href="#N"/><use transform="matrix(0.05,0,0,0.05,56.900000000000006,0)" xlink:href="#K"/><use transform="matrix(0.05,0,0,0.05,66.9,0)" xlink:href="#X"/><use transform="matrix(0.05,0,0,0.05,70.85000000000001,0)" xlink:href="#Z"/><use transform="matrix(0.05,0,0,0.05,79.85000000000001,0)" xlink:href="#K"/></g><g id="C"><use transform="matrix(0.05,0,0,0.05,0,0)" xlink:href="#ah"/><use transform="matrix(0.05,0,0,0.05,10.65,0)" xlink:href="#H"/><use transform="matrix(0.05,0,0,0.05,20.65,0)" xlink:href="#ai"/><use transform="matrix(0.05,0,0,0.05,26.599999999999994,0)" xlink:href="#K"/></g><g id="D"><use transform="matrix(0.05,0,0,0.05,0,0)" xlink:href="#N"/><use transform="matrix(0.05,0,0,0.05,9,0)" xlink:href="#H"/><use transform="matrix(0.05,0,0,0.05,19,0)" xlink:href="#ai"/><use transform="matrix(0.05,0,0,0.05,24.95,0)" xlink:href="#K"/><use transform="matrix(0.05,0,0,0.05,34.95,0)" xlink:href="#V"/><use transform="matrix(0.05,0,0,0.05,39.95,0)" xlink:href="#ac"/></g><g id="E"><use transform="matrix(0.05,0,0,0.05,0,0)" xlink:href="#ab"/><use transform="matrix(0.05,0,0,0.05,10,0)" xlink:href="#ai"/><use transform="matrix(0.05,0,0,0.05,15.949999999999998,0)" xlink:href="#M"/><use transform="matrix(0.05,0,0,0.05,19.9,0)" xlink:href="#Z"/></g><g id="F"><use transform="matrix(0.05,0,0,0.05,0,0)" xlink:href="#N"/><use transform="matrix(0.05,0,0,0.05,9,0)" xlink:href="#H"/><use transform="matrix(0.05,0,0,0.05,19,0)" xlink:href="#ai"/><use transform="matrix(0.05,0,0,0.05,24.95,0)" xlink:href="#K"/><use transform="matrix(0.05,0,0,0.05,34.95,0)" xlink:href="#V"/><use transform="matrix(0.05,0,0,0.05,39.95,0)" xlink:href="#L"/><use transform="matrix(0.05,0,0,0.05,49.95,0)" xlink:href="#Y"/><use transform="matrix(0.05,0,0,0.05,58.95,0)" xlink:href="#X"/><use transform="matrix(0.05,0,0,0.05,62.900000000000006,0)" xlink:href="#Q"/><use transform="matrix(0.05,0,0,0.05,72.9,0)" xlink:href="#J"/><use transform="matrix(0.05,0,0,0.05,82.9,0)" xlink:href="#K"/><use transform="matrix(0.05,0,0,0.05,92.9,0)" xlink:href="#ai"/><use transform="matrix(0.05,0,0,0.05,98.85000000000001,0)" xlink:href="#M"/><use transform="matrix(0.05,0,0,0.05,102.80000000000001,0)" xlink:href="#L"/><use transform="matrix(0.05,0,0,0.05,112.80000000000001,0)" xlink:href="#I"/></g></defs></g></svg>